PathFileType	4	(X/Y/Z)	C:\Users\Basilio\Documents\Thesis Gigler\squatting_fais\c3dfiles\038\SLS_back_pre4\markers_experimental.trc
DataRate	CameraRate	NumFrames	NumMarkers	Units	OrigDataRate	OrigDataStartFrame	OrigNumFrames
200.000000	200.000000	4	63	mm	200.000000	1238	1982
Frame#	Time	FHD			LBHD			RBHD			C7			T10			CLAV			LSHO			LUUPA			LMUPA			LDUPA			LLEP			LMEP			LRAD			LUL			LRFIN			RSHO			RUPA1			RMUPA			RDUPA			RLEP			RMEP			RRAD			RUL			RUFIN			LASI			RASI			USACR			LSACR			RSACR			LTHI1			LTHI2			LTHI3			LTHI4			LLFC			LMFC			LTIB1			LTIB2			LTIB3			LTIB4			LLMAL			LMMAL			LHEE			LMT1			LMT2			LMT5			RTHI			RTHI2			RTHI3			RTHI4			RLFC			RMFC			RTIB1			RTIB2			RTIB3			RTIB4			RLMAL			RMMAL			RHEE			RMT1			RMT2			RMT5			*61			*62			
		X1	Y1	Z1	X2	Y2	Z2	X3	Y3	Z3	X4	Y4	Z4	X5	Y5	Z5	X6	Y6	Z6	X7	Y7	Z7	X8	Y8	Z8	X9	Y9	Z9	X10	Y10	Z10	X11	Y11	Z11	X12	Y12	Z12	X13	Y13	Z13	X14	Y14	Z14	X15	Y15	Z15	X16	Y16	Z16	X17	Y17	Z17	X18	Y18	Z18	X19	Y19	Z19	X20	Y20	Z20	X21	Y21	Z21	X22	Y22	Z22	X23	Y23	Z23	X24	Y24	Z24	X25	Y25	Z25	X26	Y26	Z26	X27	Y27	Z27	X28	Y28	Z28	X29	Y29	Z29	X30	Y30	Z30	X31	Y31	Z31	X32	Y32	Z32	X33	Y33	Z33	X34	Y34	Z34	X35	Y35	Z35	X36	Y36	Z36	X37	Y37	Z37	X38	Y38	Z38	X39	Y39	Z39	X40	Y40	Z40	X41	Y41	Z41	X42	Y42	Z42	X43	Y43	Z43	X44	Y44	Z44	X45	Y45	Z45	X46	Y46	Z46	X47	Y47	Z47	X48	Y48	Z48	X49	Y49	Z49	X50	Y50	Z50	X51	Y51	Z51	X52	Y52	Z52	X53	Y53	Z53	X54	Y54	Z54	X55	Y55	Z55	X56	Y56	Z56	X57	Y57	Z57	X58	Y58	Z58	X59	Y59	Z59	X60	Y60	Z60	X61	Y61	Z61	X62	Y62	Z62	X63	Y63	Z63	

1239	6.19	-174.1357574462891	1584.33544921875	-1053.606323242188	-331.4264221191407	1544.799682617188	-1115.919921875	-324.0801391601563	1525.0966796875	-972.0950927734377	-389.0728454589845	1370.666015625	-1051.638427734375	-423.137420654297	1095.902465820313	-1026.909057617188	-244.6312561035157	1341.542724609375	-1063.274169921875	-306.2761230468751	1394.022094726563	-1196.883911132813	-141.2484741210938	1357.062744140625	-1330.883422851563	-114.9316940307617	1386.509887695313	-1298.437377929688	-72.49143981933595	1366.29541015625	-1335.672729492188	-10.19172382354737	1370.1630859375	-1335.687377929688	1.352387070655823	1293.91943359375	-1321.486694335938	nan	nan	nan	284.4651794433594	1384.666015625	-1287.451538085938	340.2325134277344	1396.58544921875	-1191.664794921875	-288.1345825195313	1377.861083984375	-923.6118774414065	-127.6992950439453	1361.855346679688	-815.4497070312502	-94.77392578125001	1370.018676757813	-850.2534179687502	-58.87806701660158	1359.65478515625	-802.2973632812502	14.6134786605835	1358.565673828125	-796.559753417969	21.79140090942383	1280.170288085938	-811.4747314453127	290.7051391601563	1362.156005859375	-878.1737060546877	301.5915222167969	1375.627075195313	-809.7488403320315	369.4360351562501	1399.716064453125	-883.2720947265627	-290.1241149902344	892.2926025390627	-1124.200805664063	-294.0975341796876	907.2404785156252	-878.4687500000002	-457.0821533203126	955.5269775390627	-1005.645812988281	-471.7781677246095	925.8940429687502	-1033.801513671875	-471.6353149414064	926.844421386719	-976.2166748046877	-200.1332092285157	619.8883056640626	-1175.04345703125	-132.5070343017578	567.0122680664064	-1168.342529296875	-96.6690368652344	593.1579589843751	-1143.92578125	-133.2193145751953	508.649627685547	-1149.552856445313	-113.9188232421875	458.956024169922	-1135.303100585938	-108.6394119262696	466.3643493652345	-1021.856567382813	-153.5910034179688	292.1464538574219	-1037.338989257813	-213.4217681884766	266.3718261718751	-1099.754150390625	-183.0799255371094	249.5689392089844	-1066.487670898438	-234.8195190429688	194.7544555664063	-1027.095825195313	-372.2680358886719	114.6130142211914	-1042.353637695313	-331.5097656250001	130.9540100097657	-967.6528320312502	-432.4209289550782	101.2328491210938	-981.477233886719	-232.8524780273438	46.36542510986329	-975.4857177734377	-224.9461212158204	45.25017547607423	-1025.58544921875	-270.9881591796876	34.6827621459961	-1071.891967773438	-293.7419433593751	646.3331909179689	-793.9132080078127	-244.1683044433594	601.3906250000001	-781.104675292969	-211.9585266113282	609.2321166992189	-787.153259277344	-253.6063690185547	515.0512084960939	-787.3637695312502	-228.1402282714844	425.2842102050782	-798.636657714844	-226.0064697265626	413.4312438964845	-915.7442626953127	-356.6544189453126	325.2534790039063	-840.3558349609377	-458.557098388672	380.3567504882813	-822.840270996094	-441.2728576660157	335.8440856933594	-827.8475341796877	-482.9641723632814	312.3740539550782	-863.3525390625002	-613.4486694335939	345.5479736328126	-856.9862060546877	-591.3015136718751	312.3993835449219	-931.0490722656252	-632.5380859375001	400.4680175781251	-930.8684082031252	-676.0012207031251	188.2596740722657	-923.6309204101565	-686.0011596679689	189.9793090820313	-877.0764160156252	-713.5226440429689	237.1273651123047	-843.415466308594	nan	nan	nan	nan	nan	nan	
1240	6.195	-174.1028900146485	1585.409545898438	-1053.451904296875	-331.6753845214844	1545.555297851563	-1115.70947265625	-324.2283935546876	1525.773559570313	-971.5044555664065	-389.2288208007814	1372.009887695313	-1051.579833984375	-423.0410766601564	1097.029174804688	-1026.687622070313	-244.9056091308594	1342.659545898438	-1063.200805664063	-306.5910034179688	1395.087646484375	-1196.842163085938	-141.5977020263672	1358.23681640625	-1330.85205078125	-114.8880615234375	1387.505493164063	-1298.417236328125	-72.27834320068361	1366.957153320313	-1335.732299804688	-10.44560813903809	1371.271362304688	-1335.668090820313	1.236610770225525	1295.0654296875	-1321.663452148438	nan	nan	nan	284.1719970703126	1385.78515625	-1287.647583007813	340.1671752929688	1397.606567382813	-1191.984497070313	-288.0250549316407	1378.864135742188	-923.5645141601565	-127.53564453125	1362.755737304688	-815.4208984375002	-94.69951629638673	1370.94775390625	-850.2600097656252	-58.74796676635744	1360.589721679688	-802.4073486328127	14.73141765594483	1359.253173828125	-796.6098632812502	21.97190093994141	1281.212280273438	-811.6813964843752	290.7081604003907	1363.218505859375	-878.3784790039065	301.5458679199219	1376.63427734375	-809.9400634765627	369.5229797363282	1400.920043945313	-883.7296142578127	-289.9323425292969	893.180847167969	-1124.16015625	-293.6293029785157	908.4504394531252	-878.548767089844	-456.8735656738282	956.7065429687502	-1005.4736328125	-471.5198669433595	926.9010009765627	-1033.644165039063	-471.4648437500001	927.8245239257815	-976.1866455078127	-200.4376373291016	620.6212768554689	-1174.959228515625	-132.7984313964844	567.6863403320314	-1168.222900390625	-96.9872741699219	593.6304321289064	-1143.853759765625	-133.738525390625	509.3623352050782	-1149.430419921875	-114.5162200927735	459.4822082519532	-1135.191650390625	-109.1589508056641	466.9931945800782	-1021.671203613281	-153.841796875	292.5209045410157	-1037.402221679688	-213.7083282470704	266.6707153320313	-1099.71826171875	-183.2279357910157	250.1420288085938	-1066.646484375	-234.9843902587891	194.8980255126954	-1027.171630859375	-372.3247070312501	114.6918106079102	-1042.386474609375	-331.2564697265626	131.3531799316407	-967.4480590820315	-432.4028320312501	101.1769409179688	-981.4915771484377	-232.8266906738282	46.26745986938477	-975.530212402344	-225.0316009521485	45.04132080078126	-1025.628662109375	-270.9886474609376	34.67545318603516	-1071.868408203125	-293.4403076171876	647.4457397460939	-793.8708496093752	-243.8904418945313	602.7510986328126	-781.2116699218752	-211.6987304687501	610.2005615234376	-787.1021118164065	-253.3643341064454	516.1392211914064	-787.403991699219	-227.9478454589844	426.7599487304689	-798.473083496094	-225.9743194580079	414.3447570800782	-915.7329711914065	-356.6868896484376	326.6009216308594	-839.9910888671877	-458.2832641601564	381.7705688476563	-822.7186279296877	-441.2388000488282	337.0049743652344	-827.8477172851565	-483.296600341797	312.5547180175782	-863.8022460937502	-613.3727416992189	346.7362976074219	-856.8713378906252	-591.2009277343751	313.5771789550782	-930.8817138671877	-632.2150878906251	401.8331298828126	-930.5381469726565	-676.1805419921876	189.1833648681641	-923.4542236328127	-686.1431884765626	191.4636688232422	-876.481628417969	-713.4004516601564	238.3547821044922	-843.1796875000002	nan	nan	nan	nan	nan	nan	
1241	6.2	-174.2770385742188	1586.507568359375	-1053.358642578125	-331.5533752441407	1547.04052734375	-1115.551879882813	-324.1580200195313	1527.256103515625	-971.5162353515627	-389.3165283203126	1372.9990234375	-1051.35009765625	-422.8578186035157	1098.053466796875	-1026.545166015625	-244.9848632812501	1343.580200195313	-1063.020141601563	-306.7339477539063	1396.27197265625	-1196.751220703125	-141.9125213623047	1359.249389648438	-1330.4501953125	-115.1612854003907	1388.465209960938	-1298.411865234375	-73.02942657470705	1368.339111328125	-1335.654296875	-10.21427440643311	1372.07958984375	-1335.795654296875	1.097046852111817	1296.238159179688	-1321.644775390625	nan	nan	nan	284.0204467773438	1386.793334960938	-1287.940795898438	340.0000000000001	1398.585815429688	-1192.297485351563	-288.0224914550782	1379.930786132813	-923.4476318359377	-127.6947402954102	1363.851684570313	-815.502380371094	-94.67246246337892	1371.89892578125	-850.3079223632815	-58.80817031860353	1361.619873046875	-802.4517822265627	14.77099704742432	1360.595703125	-796.7386474609377	21.99225044250489	1282.737915039063	-811.4749755859377	290.7341003417969	1364.511840820313	-878.6853027343752	301.5358581542969	1377.772705078125	-810.0838012695315	369.4171752929688	1401.70751953125	-883.4522094726565	-289.7991943359376	894.1506958007815	-1124.12548828125	-293.3142395019532	909.4176025390627	-878.5593872070315	-456.622772216797	957.7633056640627	-1005.294006347656	-471.3542480468751	927.9830322265627	-1033.619506835938	-470.9567871093751	928.9617309570315	-975.9743652343752	-200.8420410156251	621.3381347656251	-1174.87744140625	-133.1465759277344	568.3444213867189	-1168.06005859375	-97.33264923095706	594.0706176757814	-1143.765625	-134.6364288330078	510.2585449218751	-1149.289428710938	-115.1370468139649	460.1732788085939	-1135.207763671875	-109.5636520385742	467.3931579589845	-1021.566955566406	-154.1307983398438	293.0722656250001	-1037.35302734375	-213.9467926025391	267.0734863281251	-1099.572875976563	-183.58056640625	250.7962188720704	-1066.714721679688	-235.1890411376954	195.049545288086	-1027.296997070313	-372.3499755859376	114.7693252563477	-1042.306396484375	-331.2500000000001	131.3739929199219	-967.4173583984377	-432.4084777832032	101.1660461425782	-981.4864501953127	-232.8853912353516	46.26401901245118	-975.4400634765627	-225.0273132324219	45.1004753112793	-1025.630493164063	-270.9516296386719	34.67681503295899	-1071.891357421875	-293.1557617187501	648.3961181640626	-793.796081542969	-243.7169799804688	603.7455444335939	-781.1111450195315	-211.6078491210938	611.2310791015626	-787.063415527344	-253.0449981689454	517.1242675781251	-787.4464111328127	-227.9652252197266	427.5825500488282	-798.5642700195315	-225.8658599853516	415.3620910644532	-915.8972167968752	-356.5683593750001	327.4922485351563	-840.157409667969	-458.2259826660157	382.9559936523438	-822.5102539062502	-441.2331542968751	338.0801086425782	-827.4096679687502	-482.6192016601564	314.3496398925782	-863.8440551757815	-613.1134643554689	348.1534729003907	-856.5766601562502	-591.2047119140626	314.7294616699219	-930.6563110351565	-632.2475585937501	403.075408935547	-930.339050292969	-676.3744506835939	190.38818359375	-923.1781005859377	-686.0156250000001	192.5273132324219	-876.4273681640627	-713.4108886718751	239.7162017822266	-842.9893798828127	nan	nan	nan	nan	nan	nan	
1242	6.205	-174.2735595703125	1587.674682617188	-1053.329956054688	-331.6380310058594	1548.220825195313	-1115.3701171875	-324.3096618652344	1528.361694335938	-971.3804321289065	-389.418914794922	1374.120361328125	-1051.2412109375	-422.7107543945314	1099.0810546875	-1026.369995117188	-244.864486694336	1344.89697265625	-1063.136352539063	-306.7572021484376	1397.435180664063	-1196.590576171875	-141.9486999511719	1360.155395507813	-1330.876708984375	-115.4373168945313	1389.743408203125	-1298.49365234375	-73.12168121337892	1369.336669921875	-1335.750732421875	-10.58849811553955	1373.089233398438	-1335.70556640625	0.6905488371849061	1297.149780273438	-1321.7001953125	nan	nan	nan	283.8006286621094	1387.7607421875	-1288.176879882813	339.9902038574219	1399.330444335938	-1192.560913085938	-288.1606750488282	1381.0556640625	-923.331237792969	-127.6205825805664	1364.591430664063	-815.4656982421877	-94.59996032714845	1372.752319335938	-850.355651855469	-58.77755737304689	1362.673706054688	-802.4058837890627	14.73371028900147	1361.630859375	-796.7460937500002	21.78952980041504	1283.293334960938	-811.5931396484377	290.7650451660157	1365.489379882813	-878.8632812500002	301.5994873046876	1378.730590820313	-810.3038330078127	369.3873901367188	1402.913696289063	-883.958679199219	-289.7390747070313	895.3672485351565	-1124.229736328125	-292.7939453125001	910.3901367187502	-878.6216430664065	-456.2938232421876	958.9486083984377	-1005.2109375	-471.6200256347657	929.0149536132815	-1033.60498046875	-470.8067321777345	930.032409667969	-975.8139648437502	-200.9537353515626	622.0288696289064	-1174.7685546875	-133.4234924316407	568.9479370117189	-1168.014770507813	-97.6623458862305	594.5440673828126	-1143.621948242188	-135.1922454833985	510.845184326172	-1149.155517578125	-115.2670516967774	461.0255126953126	-1135.075805664063	-110.464599609375	467.8517456054689	-1021.3564453125	-154.4900665283203	293.4901733398438	-1037.323974609375	-214.2926330566407	267.4219360351563	-1099.546630859375	-183.9634857177735	251.690902709961	-1066.384765625	-235.3026733398438	195.3768310546876	-1027.19287109375	-372.3134460449219	114.8102798461914	-1042.252685546875	-331.2719421386719	131.3767547607422	-967.349548339844	-432.4666137695314	101.4957275390625	-980.8325805664065	-232.8537902832032	46.23794174194337	-975.4580688476565	-225.0449676513672	45.08162689208985	-1025.637451171875	-271.1176452636719	34.71654129028321	-1071.799194335938	-292.9626770019532	649.5680541992189	-793.8195800781252	-243.3172302246094	604.8144531250001	-781.232604980469	-211.3862304687501	612.4151000976564	-787.1592407226565	-252.8617401123047	518.1472778320314	-787.3619384765627	-227.7173309326172	428.4441528320314	-798.6895751953127	-225.7799682617188	416.4250488281251	-915.9229125976565	-356.4006652832032	328.7815551757813	-840.1268310546877	-458.1264038085939	383.7519226074219	-822.634460449219	-441.2185363769532	339.3667602539063	-827.3603515625002	-482.5767211914064	315.2037048339844	-863.7969360351565	-613.1738281250001	349.1530456542969	-856.411071777344	-591.1829223632814	316.0382385253907	-930.6140747070315	-632.0778198242189	404.3043212890626	-930.1296386718752	-676.2503662109376	192.5030059814454	-923.1695556640627	-686.1026611328126	194.0167236328126	-876.3668212890627	-713.3965454101564	240.9863891601563	-842.819519042969	nan	nan	nan	nan	nan	nan	
